<?xml version="1.0" standalone="no"?>
<!DOCTYPE svg PUBLIC "-//W3C//DTD SVG 20010904//EN"
 "http://www.w3.org/TR/2001/REC-SVG-20010904/DTD/svg10.dtd">
<svg version="1.0" xmlns="http://www.w3.org/2000/svg"
 width="500.000000pt" height="500.000000pt" viewBox="0 0 500.000000 500.000000"
 preserveAspectRatio="xMidYMid meet">
<metadata>
Created by potrace 1.14, written by Peter Selinger 2001-2017
</metadata>
<g transform="translate(0.000000,500.000000) scale(0.100000,-0.100000)"
fill="#000000" stroke="none">
<path d="M2411 4230 c-77 -16 -143 -41 -234 -88 -399 -204 -782 -691 -973
-1235 -49 -141 -116 -427 -100 -427 3 0 101 63 216 140 116 77 213 140 215
140 2 0 127 -97 277 -216 150 -119 282 -220 293 -225 16 -8 121 37 524 221
277 126 509 230 515 229 6 0 94 -99 196 -219 102 -121 189 -219 193 -220 5 0
87 53 183 118 l175 117 -6 46 c-18 148 -112 425 -215 634 -239 486 -586 843
-935 960 -89 30 -243 42 -324 25z m230 -296 c271 -79 609 -447 799 -873 54
-120 123 -311 112 -310 -4 0 -79 85 -167 189 l-160 188 -30 -12 c-16 -7 -254
-115 -528 -240 -274 -125 -505 -226 -513 -224 -12 3 -436 332 -524 407 l-35
30 39 73 c165 310 435 599 671 720 130 67 231 83 336 52z"/>
<path d="M2990 2471 c-47 -21 -269 -122 -493 -225 -224 -102 -410 -186 -411
-186 -2 0 -129 99 -282 219 l-279 220 -26 -17 c-15 -9 -115 -75 -223 -147
l-196 -130 0 -45 c0 -69 26 -246 49 -338 73 -283 198 -500 411 -712 288 -288
632 -440 992 -440 200 0 347 36 543 130 413 200 708 580 812 1045 30 137 46
482 22 473 -8 -3 -101 -65 -207 -137 -106 -72 -198 -131 -205 -131 -6 1 -100
104 -207 230 -107 126 -199 229 -205 229 -5 0 -48 -17 -95 -38z m230 -556
c116 -134 215 -247 220 -250 5 -3 30 8 54 24 25 17 47 31 50 31 9 0 -42 -110
-86 -185 -160 -271 -428 -477 -717 -551 -95 -24 -116 -26 -245 -22 -128 5
-151 9 -247 41 -207 69 -356 161 -510 316 -119 119 -201 237 -260 371 -39 87
-81 231 -93 320 l-7 45 66 43 66 43 137 -108 c311 -244 395 -308 402 -306 14
4 274 121 615 277 187 86 341 156 342 156 1 0 97 -110 213 -245z"/>
</g>
</svg>
